<svg id="Layer_1" enable-background="new 0 0 511.34 511.34" height="512" viewBox="0 0 511.34 511.34" width="512" xmlns="http://www.w3.org/2000/svg"><path d="m488.555 61.337c-2.164-5.527-6.566-9.881-12.118-11.983-79.418-30.056-361.166-30.415-441.533 0-5.552 2.103-9.954 6.456-12.118 11.983-.931 2.376-22.786 59.435-22.786 167.656s21.855 165.28 22.785 167.656c2.164 5.527 6.566 9.88 12.117 11.982 1.785.677 44.063 16.27 151.77 21.189l54.95 49.451c7.986 7.188 20.109 7.188 28.096 0l54.95-49.451c107.706-4.92 149.984-20.513 151.77-21.189 5.551-2.103 9.953-6.455 12.117-11.982.93-2.376 22.785-59.436 22.785-167.656s-21.856-165.28-22.785-167.656zm-253.885 71.656c0-11.598 9.402-21 21-21s21 9.402 21 21v128c0 11.598-9.402 21-21 21s-21-9.402-21-21zm21 213.334c-11.782 0-21.333-9.551-21.333-21.333s9.551-21.333 21.333-21.333 21.333 9.551 21.333 21.333-9.551 21.333-21.333 21.333z"/></svg>